<?xml version="1.0" encoding="UTF-8" standalone="no"?>
<svg width="245px" height="173px" viewBox="0 0 245 173" version="1.1" xmlns="http://www.w3.org/2000/svg" xmlns:xlink="http://www.w3.org/1999/xlink">
    <!-- Generator: sketchtool 3.8.3 (29802) - http://www.bohemiancoding.com/sketch -->
    <title>1CC1FDCA-AD10-49FB-96C6-16BC96BC0A1F</title>
    <desc>Created with sketchtool.</desc>
    <defs></defs>
    <g id="Page-1" stroke="none" stroke-width="1" fill="none" fill-rule="evenodd">
        <g id="Dashboard-option" transform="translate(-844.000000, -938.000000)" fill="#444444">
            <g id="delivery" transform="translate(-41.000000, 869.000000)">
                <g id="noun_193650_cc" transform="translate(885.000000, 69.000000)">
                    <g id="Group">
                        <path d="M95.8189684,71.0690667 C96.2996632,71.0690667 96.7885053,71.0256889 97.2773474,70.9362222 L131.412105,64.7413333 L136.851832,78.3185778 L101.660632,85.4759111 C99.0534737,86.0045778 96.8129474,87.6583556 95.5446737,89.9926222 C94.2736842,92.3241778 94.0998737,95.1003556 95.0721263,97.5728889 L112.024084,140.725644 C113.417284,144.271778 116.817453,146.435244 120.413158,146.435244 C121.507621,146.435244 122.618379,146.234622 123.699263,145.8144 C128.335116,144.000667 130.613663,138.781778 128.7968,134.156622 L115.755579,100.9672 L151.020105,93.7936 C153.638126,93.2622222 155.8868,91.5976 157.152358,89.2497778 C158.423347,86.9019556 158.578147,84.1149333 157.5896,81.6396889 L138.940274,35.1007556 C137.090821,30.4864444 131.846632,28.2524889 127.229789,30.0906222 C122.610232,31.9368889 120.364274,37.1693333 122.211011,41.7809333 L125.268989,49.4154222 L94.3768842,55.0247111 C89.9745895,55.8217778 87.0578316,60.0321333 87.8589895,64.4268444 C88.5705263,68.3335556 91.9788421,71.0690667 95.8189684,71.0690667 L95.8189684,71.0690667 Z" id="Shape"></path>
                        <path d="M173.802863,53.6745778 L174.180358,57.4294667 L244.508442,46.0834667 L245,32.5224889 C245,32.5224889 167.871579,29.9848889 173.802863,53.6745778 L173.802863,53.6745778 Z" id="Shape"></path>
                        <path d="M177.194884,87.5200889 L228.898084,87.5200889 C228.898084,87.5200889 239.913326,85.8283556 243.305347,79.0587111 L244.413389,48.6725778 L174.432926,59.9616444 L177.194884,87.5200889 L177.194884,87.5200889 Z" id="Shape"></path>
                        <path d="M231.087011,129.639911 L218.588947,132.481156 C218.377116,130.651156 218.037642,128.823867 217.535221,127.018267 C219.580211,127.170089 221.437811,127.5388 223.061853,128.1488 L225.628274,126.671244 C224.688611,122.284667 223.075432,117.968578 220.707263,113.8748 C208.540526,92.8284444 181.5836,85.6196 160.506358,97.7708 C142.305137,108.260089 134.461937,129.748356 140.488274,148.967422 L91.0717684,148.967422 L82.5306105,98.6654667 C82.2726105,96.6456889 79.7876632,80.3627556 67.0451789,72.4571556 C68.1695158,70.0659556 71.4366105,66.6879111 80.9500211,67.5120889 C83.9048,67.7479556 86.5445474,65.5709333 86.8052632,62.6022667 C87.0632632,59.6336 84.8634737,57.0173778 81.8869684,56.7598222 C73.3838316,56.0196889 66.6704,57.7222667 61.9096211,61.8187556 C59.3323368,64.0337333 57.8522316,66.5306667 56.9641684,68.6778667 C56.9424421,68.6724444 56.9234316,68.6670222 56.9044211,68.6643111 C56.6029684,68.6128 56.2988,68.5884 55.9919158,68.5884 L37.3453053,68.5884 C34.3606526,68.5884 31.9408842,71.004 31.9408842,73.9862222 C31.9408842,76.9657333 34.3606526,79.3813333 37.3453053,79.3813333 L55.5057895,79.3813333 C69.4785263,82.0978667 71.7244842,99.3405333 71.8113895,100.061689 C71.8222526,100.162 71.8358316,100.256889 71.8521263,100.354489 L81.1781474,155.268044 C81.6181053,157.862578 83.8722105,159.763067 86.5065263,159.763067 L145.572232,159.763067 C147.712274,163.062489 150.213516,166.001333 153.016211,168.525378 L156.497853,166.521867 C156.894358,165.244933 157.475537,163.911067 158.195221,162.547378 C169.441305,173.234578 186.822358,175.796578 200.925453,167.663244 C210.210737,162.3088 216.158316,153.410933 218.113684,143.661778 L233.485053,140.164444 C236.396379,139.502933 238.221389,136.610178 237.558737,133.703867 C236.896084,130.797556 233.982042,128.975689 231.087011,129.639911 L231.087011,129.639911 Z M186.412274,136.574933 C193.826379,132.302222 200.621284,129.550444 206.566147,128.118978 C207.367305,130.333956 207.823558,132.611289 207.978358,134.894044 L178.571789,141.576933 C181.037726,139.849956 183.644884,138.169067 186.412274,136.574933 L186.412274,136.574933 Z M195.521032,158.312622 C185.9696,163.818889 174.283558,162.300667 166.4132,155.411733 L206.031137,146.408133 C203.980716,151.247467 200.420316,155.487644 195.521032,158.312622 L195.521032,158.312622 Z" id="Shape"></path>
                        <path d="M36.4979789,100.739467 C16.6917263,100.739467 0.578947368,116.821778 0.578947368,136.593911 C0.578947368,156.366044 16.6917263,172.451067 36.4979789,172.451067 C56.3015158,172.451067 72.4170105,156.366044 72.4170105,136.593911 C72.4170105,116.821778 56.3015158,100.739467 36.4979789,100.739467 L36.4979789,100.739467 Z M36.4979789,161.658133 C22.6528842,161.658133 11.3905053,150.415156 11.3905053,136.593911 C11.3905053,122.772667 22.6528842,111.529689 36.4979789,111.529689 C50.3403579,111.529689 61.6054526,122.772667 61.6054526,136.593911 C61.6054526,150.415156 50.3403579,161.658133 36.4979789,161.658133 L36.4979789,161.658133 Z" id="Shape"></path>
                        <path d="M94.0727158,15.1198667 C92.4894105,23.1908444 96.4761895,30.7873778 102.956063,32.0534667 C103.846842,32.2269778 104.737621,32.2622222 105.617537,32.1890222 C105.584947,32.2242667 105.560505,32.2486667 105.560505,32.2486667 C128.508926,28.8164 122.960568,28.2253778 124.687811,19.4034222 C126.417768,10.5841778 120.657579,2.03333333 111.8204,0.306355556 C102.983221,-1.42062222 94.4176211,4.33235556 92.6903789,13.1516 L94.4665053,13.4986222 C94.3171368,14.0272889 94.1786316,14.5640889 94.0727158,15.1198667 L94.0727158,15.1198667 Z M97.5842316,15.8057778 C97.6928632,15.2472889 97.8395158,14.7132 98.0024632,14.1899556 L108.691811,16.2775111 C113.938716,17.9204444 112.512926,22.5374667 110.144758,26.3872444 C108.249137,28.1332 105.932568,28.9953333 103.643158,28.548 C99.0996421,27.6587556 96.3811368,21.9437333 97.5842316,15.8057778 L97.5842316,15.8057778 Z" id="Shape"></path>
                    </g>
                </g>
            </g>
        </g>
    </g>
</svg>